<?xml version="1.0" encoding="utf-8"?>
<!-- Generator: Adobe Illustrator 24.0.2, SVG Export Plug-In . SVG Version: 6.00 Build 0)  -->
<svg version="1.1" id="Layer_1" xmlns:xodm="http://www.corel.com/coreldraw/odm/2003"
	 xmlns="http://www.w3.org/2000/svg" xmlns:xlink="http://www.w3.org/1999/xlink" x="0px" y="0px" viewBox="0 0 308 300"
	 style="enable-background:new 0 0 308 300;" xml:space="preserve">
<style type="text/css">
	.st0{fill-rule:evenodd;clip-rule:evenodd;fill:#BABABA;}
	.st1{fill-rule:evenodd;clip-rule:evenodd;fill:#5E5E5E;}
</style>
<g id="Layer_x0020_1">
	<path class="st0" d="M0.1,299.8l0.2,0.2l307.3-0.1c0-99.8,1-200.1-0.1-299.9H0L0.1,299.8L0.1,299.8z"/>
	<polygon class="st1" points="149.5,12.9 62.4,12.9 12.8,12.9 12.8,217.9 12.8,287.2 294.7,287.2 294.7,13.4 294.7,12.9 228.1,12.9 
			"/>
	<path class="st0" d="M54.3,207.3l21-0.2c4.1-13,7.7-26.3,11.7-39.4h40.4l11.3,39.7l23-0.1c-13.2-47.4-27-93.8-40.8-140.9l-29,0.2
		C83.1,112.1,66.4,161.9,54.3,207.3L54.3,207.3z M198.5,207.3c8.3,1.9,14.4,2.5,23.3,1.8c5.6-0.5,16-2.2,19.3-5.7L241,185
		c-2.2-0.1-20.1,8.1-35.4,1.6c-10.6-4.5-15.5-16.3-14.5-26.3c10.1,0,49.1,1,55.9-1.4c2.7-5.9,1.6-21.4,0.1-27.8
		c-2.1-8.9-4.8-13.2-10.1-19.4c-0.6-0.7-0.3-0.2-0.5-0.8c-5.2-3.9-9.7-7.5-18.4-8.8c-43-6.9-58.7,44.2-46.5,78.8
		c3.7,10.6,9.3,17.2,17.9,22.4C192.8,205.4,195.1,205.7,198.5,207.3L198.5,207.3z M91.5,147h30.6c-2.1-11.9-8.4-31.3-11.8-45.1
		c-1-4-2.3-11.8-3.9-15C103,107.9,94.8,129.3,91.5,147z M191.2,142.5c9.5,0,19,0,28.5,0c6.9,0,8,0.9,6.5-7
		c-0.8-4.1-2.3-7.5-4.5-10.1C213.9,116.6,193.7,116.9,191.2,142.5L191.2,142.5z"/>
</g>
</svg>
