<?xml version="1.0" encoding="utf-8"?>
<!-- Generator: Adobe Illustrator 24.0.2, SVG Export Plug-In . SVG Version: 6.00 Build 0)  -->
<svg version="1.1" id="Layer_1" xmlns="http://www.w3.org/2000/svg" xmlns:xlink="http://www.w3.org/1999/xlink" x="0px" y="0px"
	 viewBox="0 0 266.3 245" style="enable-background:new 0 0 266.3 245;" xml:space="preserve">
<style type="text/css">
	.st0{fill-rule:evenodd;clip-rule:evenodd;fill:#959595;}
	.st1{fill-rule:evenodd;clip-rule:evenodd;fill:#FDFDFD;}
	.st2{fill-rule:evenodd;clip-rule:evenodd;fill:#E9E9E9;}
	.st3{fill-rule:evenodd;clip-rule:evenodd;fill:#E5E5E5;}
</style>
<g id="Capa_1">
	<g id="_2312206661168">
		<path class="st0" d="M92.6,148.7h9.7c1.1,3.2-1.1,25.9,1.1,30.1c-1.1,1.1-1.1,1.1,0,2.2c1.1,2.1,4.3,3.2,6.5,3.2
			c1.7,0.9,3.5,1.2,5.4,1.1c1.1-1.1,3.2-1.1,4.3-2.1s3.2-3.2,3.2-5.4v-29.1h20.5v29.1c0,1.1,0,1.1,1.1,2.1c0,2.1,1.1,2.1,2.2,2.1
			c5.4,5.4,16.1,2.2,17.2-4.3v-28c0-1.1,0-1.1,1.1-1.1s6.5,1.1,10.8-1.1c9.7-3.2,7.5-11.8,7.5-20.5V62.5c0-4.3,1.1-4.3-1.1-4.3H85.1
			c-3.2,0-2.2-1.1-2.2,6.5v70c0,5.4,2.2,9.7,5.4,11.9C89.5,147.7,91,148.4,92.6,148.7z"/>
		<path class="st0" d="M154,25.9c2.2,0,5.4,2.1,6.5,5.4c0,3.2-2.1,5.4-5.4,6.5C148.6,38.9,145.4,28.1,154,25.9z M109.8,25.9
			c3.1,0.1,5.9,1.7,7.5,4.3c-0.1,3.1-1.7,6-4.3,7.6C105.5,38.9,102.3,28.1,109.8,25.9L109.8,25.9z M99.1,2.2l3.2,4.3l5.4,8.6h-1.1
			c-5.4,3.2-8.6,5.4-12.9,9.7S86.1,35.6,84,42.1c0,2.2-1.1,7.5-1.1,9.7h100.1c1.1,0,0-2.2,0-3.2v-3.2c-1.4-5.8-4-11.3-7.5-16.1
			c0-1.1,0-1.1-1.1-1.1l-2.1-3.2l-2.1-2.1l-2.1-2.2c-3-1.6-5.8-3.4-8.6-5.4h-1.1l4.3-6.5c1.1-2.2,4.3-5.4,4.3-7.5
			c-0.6-0.6-1.3-1-2.2-1.1c-1.1,0-2.1,2.2-3.2,3.2s-1.1,1.1-1.1,2.2l-5.4,8.6c-2.1-1.1-3.2-1.1-4.3-2.2c-5.4-1.1-14-1.1-19.4-1.1
			c-4.3,0-10.8,0-15.1,1.1c-2.2,1.1-3.2,1.1-5.4,2.1l-7.5-12.9C101.2-1,99.1,0.1,99.1,2.2z"/>
		<path class="st0" d="M54.9,71.2v45.2c0,3.2,0,4.3,2.2,6.5c3.2,3.2,10.8,3.2,15.1,1.1c1.1-1.1,2.2-2.2,2.2-3.2
			c0.8-0.9,1.2-2,1.1-3.2V66.8c0-3.2-3.2-6.5-6.5-7.5c-4.2-1.1-8.8,0.1-11.8,3.2C53.8,64.7,54.9,66.8,54.9,71.2z"/>
		<path class="st0" d="M190.6,66.8v50.6c0,4.3,5.4,8.6,10.8,8.6s10.8-3.2,10.8-9.7V69c0-2.2,0-3.2-1.1-4.3
			c-2.1-6.5-11.8-6.5-16.1-3.2h-1.1C192.8,62.5,190.6,64.7,190.6,66.8z"/>
		<path class="st0" d="M0,227.3c0,8.6,6.5,17.2,15.1,17.2h9.7v-6.5h-9.7c-5.4,0-11.9-9.7-6.5-17.2c1.1-2.2,2.2-3.2,5.4-3.2
			c1.1-1.1,9.7-1.1,12.9-1.1h4.3v28h6.5v-34.5H24.8c-4.3,0-10.8-1.1-14,0C5.4,212.2,0,218.7,0,227.3z"/>
		<path class="st0" d="M188.4,237c-2.8-0.1-5.5-1.2-7.5-3.2c-1.1-1.1-2.1-2.1-2.1-3.2c-2.1-4.3-1.1-8.6,2.1-11.9
			c5.4-5.4,17.2-4.3,18.3,7.5c-0.1,2.8-1.3,5.5-3.2,7.5c-1.1,1.1-1.1,1.1-3.2,2.1C191.7,237,190.6,237,188.4,237z M170.1,226.2
			c0,7.3,4.2,14,10.8,17.2c6.5,3.2,15.1,1.1,20.5-4.3c3.3-3.1,5.2-7.3,5.4-11.8v-2.2c0-5.4-3.2-9.7-5.4-11.8l-2.1-2.1
			c-5.4-3.2-11.9-4.3-17.2-2.2c-1.1,0-1.1,0-2.1,1.1h-1.1c-2.1,1.1-3.2,3.2-4.3,4.3C171.2,217.6,170.1,221.9,170.1,226.2
			L170.1,226.2z"/>
		<path class="st0" d="M47.4,244.5h5.4v-18.3c0-5.9,4.8-10.8,10.8-10.8c4.3,0,8.6,3.2,10.8,6.5v22.6h7.5v-18.3
			c0-8.6-5.4-14-11.8-16.1c-1.1-1.1-1.1-1.1-2.2-1.1h-7.5c-2.2,0-2.2,0-4.3,1.1c-4.3,3.2-8.6,7.5-9.7,12.9c0,5.4,1.1,16.1,0,21.5
			H47.4z"/>
		<path class="st0" d="M230.4,210.1v6.5h16.1c2.9-0.1,5.6,1.1,7.5,3.2c6.5,6.5,1.1,17.2-5.4,18.3h-18.3v6.5h16.1
			c3.2,0,5.4,0,7.5-1.1c0.8-0.1,1.6-0.5,2.1-1.1c4.3-3.2,7.5-8.6,7.5-14s0-7.5-3.2-11.9s-7.5-6.5-15.1-6.5L230.4,210.1L230.4,210.1z
			"/>
		<path class="st0" d="M109.8,216.5L109.8,216.5l1.1,1.1c5.4,2.1,8.6,9.7,3.2,16.1c-3.2,4.3-5.4,4.3-9.7,4.3h-14v6.5
			c4.3,0,17.2,1.1,20.5,0c2.2,0,5.4-2.2,6.5-3.2l1.1-2.2h1.1c3.2-4.3,5.4-10.8,3.2-17.2c0-2.1-2.2-4.3-3.2-7.5l-2.2-1.1
			c-1.1-1.1-5.4-4.3-7.5-3.2H90.4v6.5C92.6,216.5,107.7,215.4,109.8,216.5z"/>
		<path class="st0" d="M132.4,210.1c0,7.5-1.1,6.5,3.2,6.5s14,0,17.2,1.1c4.3,2.1,4.3,7.5,0,9.7c-2.2,1.1-9.7,1.1-12.9,1.1h-6.5
			c-1.1,0-1.1-1.1-1.1,6.5h15.1c2.2,0,5.4,3.2,6.5,5.4c0.8,1.3,1.1,2.8,1.1,4.3h6.5c0-2.2,0-5.4-1.1-7.5l-2.1-2.2
			c-0.1-0.8-0.5-1.6-1.1-2.2l2.2-2.1c1.9-2.1,3-4.7,3.2-7.5c0-2.1,0-4.3-2.2-6.5c-2.1-5.4-6.5-6.5-12.9-6.5L132.4,210.1L132.4,210.1
			z"/>
		<path class="st0" d="M214.3,244.5h7.5v-34.5h-7.5V244.5z"/>
		<path class="st1" d="M109.8,25.9c-7.5,2.1-4.3,12.9,3.2,11.8c2.6-1.6,4.3-4.5,4.3-7.5C115.7,27.6,112.9,26,109.8,25.9z"/>
		<path class="st1" d="M154,25.9c-8.6,2.1-5.4,12.9,1.1,11.8c3.2-1.1,5.4-3.2,5.4-6.5C159.4,28.1,156.1,25.9,154,25.9z"/>
		<path class="st2" d="M122.8,177.8L122.8,177.8v-27c0-2.2-1.1-2.2,7.5-2.2h12.9v29.2l0,0v-29.1h-20.5V177.8z"/>
		<path class="st3" d="M109.8,216.5c-2.2-1.1-17.2,0-19.4,0v-6.5h9.7c-2.2,0-8.6-1.1-9.7,0v6.5H109.8z"/>
		<path class="st2" d="M103.4,178.8c-2.2-4.3,0-26.9-1.1-30.1l0,0v30.1H103.4z"/>
	</g>
</g>
</svg>
