<?xml version="1.0" encoding="utf-8"?>
<!-- Generator: Adobe Illustrator 26.0.0, SVG Export Plug-In . SVG Version: 6.00 Build 0)  -->
<svg version="1.1"
	 id="svg3476" sodipodi:docname="CSS3.svg" xmlns:cc="http://creativecommons.org/ns#" xmlns:dc="http://purl.org/dc/elements/1.1/" xmlns:inkscape="http://www.inkscape.org/namespaces/inkscape" xmlns:rdf="http://www.w3.org/1999/02/22-rdf-syntax-ns#" xmlns:sodipodi="http://sodipodi.sourceforge.net/DTD/sodipodi-0.dtd" xmlns:svg="http://www.w3.org/2000/svg"
	 xmlns="http://www.w3.org/2000/svg" xmlns:xlink="http://www.w3.org/1999/xlink" x="0px" y="0px" viewBox="0 0 290.2 409.6"
	 style="enable-background:new 0 0 290.2 409.6;" xml:space="preserve">
<style type="text/css">
	.st0{fill:#264DE4;}
	.st1{fill:#2965F1;}
	.st2{fill:#EBEBEB;}
	.st3{fill:#8B8A8E;}
	.st4{fill:#FFFFFF;}
</style>
<sodipodi:namedview  bordercolor="#666666" borderopacity="1.0" fit-margin-bottom="0" fit-margin-left="0" fit-margin-right="0" fit-margin-top="0" id="base" inkscape:current-layer="layer1" inkscape:cx="181.367" inkscape:cy="256" inkscape:document-units="px" inkscape:pageopacity="0.0" inkscape:pageshadow="2" inkscape:window-height="704" inkscape:window-maximized="1" inkscape:window-width="1366" inkscape:window-x="0" inkscape:window-y="27" inkscape:zoom="0.35" pagecolor="#ffffff" showgrid="false">
	</sodipodi:namedview>
<g id="g3013" transform="translate(119,276.3622)">
	<polygon id="polygon2989" class="st0" points="171.2,-195.9 144.8,100.3 25.9,133.2 -92.6,100.3 -119,-195.9 	"/>
	<polygon id="polygon2991" class="st1" points="122.1,81.4 144.7,-171.6 26.1,-171.6 26.1,108.1 	"/>
	<polygon id="polygon2993" class="st2" points="-58.5,-61.8 -55.2,-25.5 26.1,-25.5 26.1,-61.8 	"/>
	<polygon id="polygon2995" class="st2" points="26.1,-135.3 26,-135.3 -65,-135.3 -61.7,-99 26.1,-99 	"/>
	<polygon id="polygon2997" class="st2" points="26.1,70.4 26.1,32.6 25.9,32.6 -14.5,21.7 -17.1,-7.3 -36.8,-7.3 -53.6,-7.3 
		-48.5,49.7 25.9,70.4 	"/>
	<path id="path2999" inkscape:connector-curvature="0" class="st3" d="M-50.7-276.4h44v18.4h-25.6v18.4h25.6v18.4h-44V-276.4z"/>
	<path id="path3001" inkscape:connector-curvature="0" class="st3" d="M2.1-276.4h44v16H20.5v3.2h25.6v36.8h-44v-16.8h25.6v-3.2H2.1
		V-276.4z"/>
	<path id="path3003" inkscape:connector-curvature="0" class="st3" d="M54.9-276.4h44v16H73.3v3.2h25.6v36.8h-44v-16.8h25.6v-3.2
		H54.9V-276.4z"/>
	<polygon id="polygon3005" class="st4" points="70.7,-25.5 66.5,21.7 26,32.6 26,70.4 100.4,49.7 101,43.6 109.5,-52 110.4,-61.8 
		117,-135.3 26,-135.3 26,-99 77.2,-99 73.9,-61.8 26,-61.8 26,-25.5 	"/>
</g>
</svg>
