<?xml version="1.0" encoding="utf-8"?>
<!-- Generator: Adobe Illustrator 26.0.0, SVG Export Plug-In . SVG Version: 6.00 Build 0)  -->
<svg version="1.1" id="layer" xmlns="http://www.w3.org/2000/svg" xmlns:xlink="http://www.w3.org/1999/xlink" x="0px" y="0px"
	 viewBox="0 0 652 652" style="enable-background:new 0 0 652 652;" xml:space="preserve">
<style type="text/css">
	.st0{fill:#747378;}
	.st1{fill:#1ABCFE;}
	.st2{fill:#0ACF83;}
	.st3{fill:#FF7262;}
	.st4{fill:#F24E1E;}
	.st5{fill:#A259FF;}
</style>
<path class="st0" d="M257.6,257.4v101.8l13.1,0.1v-48.5h31.6V298h-31.6v-27.8h41.1v-12.8L257.6,257.4L257.6,257.4z M335.4,278.1
	c4.7,0,8.6-3.8,8.6-8.6s-3.8-8.6-8.6-8.6c-4.7,0-8.6,3.8-8.6,8.6S330.6,278.1,335.4,278.1L335.4,278.1z M328.7,290.9v68.4h13.1
	v-68.4H328.7z M390.4,288.9c-17.4,0-29.5,14.7-29.5,32.2s12.1,32.2,29.5,32.2c8,0,14.5-3,19.3-8.1v9.1c0.1,11.3-8.9,20.7-20.3,20.8
	c-0.1,0-0.1,0-0.2,0c-4.2,0-8.3-1.6-11.6-3.9l-6.6,11.4c15.6,10.1,36.4,5.6,46.4-10c3.5-5.5,5.4-11.8,5.4-18.3V291h-13.1v6.1
	C404.9,292,398.4,288.9,390.4,288.9L390.4,288.9z M374,321.1c0-10.9,8.3-19.4,17.9-19.4s17.8,8.6,17.8,19.4
	c0,10.9-8.3,19.3-17.8,19.3C382.3,340.4,374,331.9,374,321.1z M470,301.7c-7.8,0.1-14.1,6.5-14,14.3v43.2h-13.1v-68.4H456v6.3
	c4-5.3,10.2-8.3,16.9-8.2c9.2,0,16.3,4.5,20.3,11.5c4.6-7.1,12.4-11.4,20.8-11.5c14.9,0,24.2,12,24.2,26.9v43.4h-13V316
	c0-7.8-6.2-14.2-14-14.3c-7.8,0.1-14.1,6.5-14,14.3v43.2H484V316C484,308.2,477.8,301.8,470,301.7L470,301.7z M608,298.6
	c-6-6.3-14.4-9.8-23.1-9.7c-19.5,0-33.3,16.5-33.3,36.1c0,19.7,13.8,36.1,33.3,36.1c8.7,0,17-3.5,23.1-9.7v7.8h13.1v-68.4H608V298.6
	L608,298.6z M564.7,325c0-13,10-23.4,21.7-23.4C598,301.7,608,312,608,325s-10,23.3-21.7,23.3C574.8,348.4,564.7,338.1,564.7,325z"
	/>
<path id="b" class="st1" d="M88.4,320.5c0-18.6,15.1-33.7,33.7-33.7s33.7,15.1,33.7,33.7s-15.1,33.7-33.7,33.7
	S88.4,339.1,88.4,320.5z"/>
<path id="c" class="st2" d="M21.1,387.8c0-18.6,15.1-33.7,33.7-33.7h33.7v33.7c0,18.6-15.1,33.7-33.7,33.7S21.1,406.4,21.1,387.8z"
	/>
<path id="d" class="st3" d="M88.4,219.5v67.3h33.7c18.6,0,33.7-15.1,33.7-33.7s-15.1-33.7-33.7-33.7L88.4,219.5L88.4,219.5z"/>
<path id="e" class="st4" d="M21.1,253.2c0,18.6,15.1,33.7,33.7,33.7h33.7v-67.3H54.8C36.2,219.5,21.1,234.6,21.1,253.2z"/>
<path id="e_1_" class="st5" d="M21.1,320.5c0,18.6,15.1,33.7,33.7,33.7h33.7v-67.3H54.8C36.2,286.8,21.1,301.9,21.1,320.5z"/>
</svg>
