<?xml version="1.0" encoding="utf-8"?>
<!-- Generator: Adobe Illustrator 24.0.2, SVG Export Plug-In . SVG Version: 6.00 Build 0)  -->
<svg version="1.1" id="Layer_1" xmlns:xodm="http://www.corel.com/coreldraw/odm/2003"
	 xmlns="http://www.w3.org/2000/svg" xmlns:xlink="http://www.w3.org/1999/xlink" x="0px" y="0px" viewBox="0 0 501 300"
	 style="enable-background:new 0 0 501 300;" xml:space="preserve">
<style type="text/css">
	.st0{fill-rule:evenodd;clip-rule:evenodd;fill:#767676;}
	.st1{fill-rule:evenodd;clip-rule:evenodd;fill:#828282;}
</style>
<g id="Layer_x0020_1">
	<g id="_2171652695536">
		<path class="st0" d="M446.7,153.1c1.4-0.1,3.6-1.1,5-1.5c7.4-2.1,10.6-2.9,18.6-2.9c9.3,0,13.2,3.9,14.3,12
			c0.2,1.3,0.3,2.7,0.3,4.1c0.1,6,0.3,3.9-7.1,4.6c-6.3,0.6-12.9,0.6-18.9,2.7c-7.1,2.5-13.3,6.6-16.4,12.6
			c-3.7,7.3-2.7,16.4,1,23.2c3.3,6.1,11.7,9.1,20.9,9.1c5.5,0,13.5-2.9,17.7-6.1c0.8-0.6,1.6-1.1,2.3-1.7c0.7-0.6,1.6-1.6,2.4-1.8
			l1.2,6.7c0.2,0.8,0.1,0.5,0.5,0.8c0.7,0.4,7.9,0.1,9.8,0.2c1.6,0,2,0.2,2-1.5v-54.5c0-7-3.4-13-7.6-16.4c-9.9-8.1-28-6-39.6-2.5
			c-1.7,0.5-7.5,2.3-8.7,3.4c-0.8,0.7,0.4,3.7,0.7,4.7C445.7,149.5,446.2,152,446.7,153.1L446.7,153.1z M478.4,179.3
			c-4.3,0.5-8.1,0.2-12.2,1.4c-3.7,1.1-6.5,2.5-8.3,5.4c-1.8,2.8-2.4,7.7-1.3,11.3c1.1,3.4,3.5,5.8,6.7,7c7.7,2.8,15.5-2.5,19.8-5.8
			c0.6-0.5,1.4-0.8,1.6-1.8c0.2-0.9,0.1-17,0-17.1c-0.1-0.2,0.2-0.5-1.3-0.4L478.4,179.3z"/>
		<path class="st0" d="M303.8,153c0.8,0,9.4-2.7,12.4-3.3c4.5-0.9,9.7-1.4,14.6-0.8c9.3,1.2,11.3,8.3,11.2,16.3
			c-0.1,5.4,1.1,3.5-9,4.3c-2.8,0.3-5.7,0.4-8.5,0.8c-6.2,0.8-9.3,1.8-14.3,4.3c-1.8,0.9-4,2.5-5.5,3.7c-5.7,4.9-8.3,11.9-7.2,20.2
			c1.5,11.4,7.6,16.8,19,18.1c6.1,0.7,9.9,0.4,15.8-2.1c2.1-0.9,4.2-1.9,6.1-3.1c2-1.3,2.3-1.6,4-3.1c0.5-0.4,0.8-0.9,1.5-0.9
			c0.3,0.6,0.8,3.5,0.9,4.3c0.4,2.1-0.1,3.2,2.2,3.2h8.1c3.2,0,2.3,0.9,2.3-11.3v-32.5c0-12.4,1.7-24.9-12.1-31.4
			c-11.1-5.3-29.5-2.3-40.8,2.3c-1.1,0.4-3.2,1-3.2,2.3C301.5,145.1,303.5,152.4,303.8,153L303.8,153z M335.3,179.4l-6.5,0.4
			c-2,0.2-4,0.5-5.8,1.1c-3.9,1.1-6.4,2.7-8.1,5.6c-2.9,5-2.6,15.2,6,18.1c7.6,2.5,15.6-3,19.8-6.3c1.9-1.5,1.4-2.2,1.4-5.5
			c0-1.4,0.3-12.9-0.3-13.3C341.2,179,336,179.3,335.3,179.4z"/>
		<path class="st0" d="M390.8,215.2l16.9,0c2.7,0.1,2.7-0.7,3.7-2.6c0.7-1.4,1.4-3,2-4.4c1.3-3,2.6-5.9,3.8-9
			c2.4-6.4,4.5-12.7,6.4-19.3c2-6.8,3.7-13.2,5.4-20.1l3.5-15.7c0.3-1.3,1-4.1,1-5.4c-1.7-0.2-15.5-0.3-16.2,0.1
			c-0.7,0.5-0.6,3.2-0.7,4c-0.4,3.7-1.2,8.6-2,12c-2.4,11.3-4.6,18.9-7.9,29.7c-0.7,2.1-4.1,13.2-4.8,14c-0.4-0.4-1.9-6.7-2.2-7.8
			c-1.8-7.1-4.7-16.3-6.7-23.2c-1.6-5.1-3.1-10.2-4.8-15.2c-0.8-2.5-1.6-5-2.4-7.5c-0.4-1.3-0.8-2.7-1.2-3.8
			c-0.5-1.8-0.6-2.4-2.7-2.4h-13.3c-2.5,0-2-0.2-0.9,3.5l4.6,14.7c1.1,3.3,1.9,6.5,3,9.7c1.1,3,2.1,6.7,3,9.7
			c2.9,9.7,6.3,19.6,9.1,29.2C388,207.2,390.1,214.3,390.8,215.2L390.8,215.2z"/>
		<path class="st0" d="M269.5,114.4v91.1c0,9-2.5,16.3-8,22.5c-0.3,0.3-0.3,0.4-0.6,0.7c-2.4,2.2-4.4,3.5-7.7,4.9
			c0.1,0.8,3.9,4.9,4.5,5.7c0.8,1,1.4,1.8,2.4,2.8c1.1,1.1,2.2,0.3,3.7-0.3c16.3-6.2,22.3-22.6,22.3-39.2v-89.6c0-1,0.1-1.3-1-1.5
			l-14.2,0C269.2,111.5,269.5,111.6,269.5,114.4L269.5,114.4z"/>
		<path class="st0" d="M142.7,0c-0.2,0.6,0.6,6.1,0.7,7.4c0.2,2.7,0.1,5.7-0.2,8.3c-1.5,13.2-8.5,25.5-17.8,33.8
			c-8.7,7.8-19,15.4-27.9,23.4c-3.2,2.8-6,5.2-9,8.2c-7.8,7.7-20.5,20.4-15.6,33.4c3,8,11.4,19.4,17,25.8c0.8,0.9,1.1,1.5,1.9,2.3
			c2.7,2.9,5.3,6.1,8.1,9.1c0.7,0.7,1.4,1.5,2.2,2.2c1.6,1.6,2.7,3.1,4.1,4.4l4.4,4.2c-0.3-1.3-2.3-3.6-3-4.7c-1.1-1.6-2-3-3.2-4.8
			l-3.1-4.8c-5.3-8.8-9.8-16.2-12.8-26.9c-2.7-9.5,0.5-15.8,5.8-23.6c1.6-2.3,5.1-6.5,7.1-8.7c5.7-6.2,13.5-13.8,19.8-19.8
			c6-5.7,15.2-13.7,19.3-20.4c7.7-12.2,9.7-23.8,6.9-38.2c-0.6-3-1.3-6.4-2.9-8.9C144.1,1.1,143.4-0.3,142.7,0L142.7,0z"/>
		<path class="st1" d="M204.8,256.4c0.4,1.5,2,3.4,0.1,5.9c-9.2,11.8-90.8,13.7-107,13.9c-13,0.1-17.8,0.3-31-0.7
			c-10-0.7-19.6-1.7-29.2-3.2c-4.2-0.7-26.1-3.7-15.1-11c2.7-1.8,8-3.6,11.6-4.4l13.1-2.6c0.3-0.1,0.2-0.1,0.4-0.2
			c-9.9-1.6-40.5,4-46,13.2c-1.8,2.9-1.4,5.1,0.9,6.9c7.5,5.8,31.5,7.9,41.3,8.7l13.8,0.9c1.1,0,3,0.1,4.3,0.2
			c6.4,0.5,13.1,0.1,19.5,0.5c10.2,0.6,28.5-0.4,39.4-0.5c3-0.1,6.5-0.3,9.5-0.5c9.9-0.7,17.3-1,27.5-2.3
			c13.9-1.8,35.1-5.9,46.3-13.6c1.4-1,4.4-3.3,4.9-5.1C209.5,259.7,206.5,256.9,204.8,256.4L204.8,256.4z"/>
		<path class="st0" d="M112.4,112.5c0,22.9,22.5,32,18.5,46.9c-0.8,2.8-2.3,5.2-3.6,7.4c-0.9,1.5-4.2,6-4.5,6.6
			c2.3,0.2,12.5-8.8,14.4-10.7c3.3-3.4,8.6-9.5,8.7-16.4c0.2-13.3-12.5-24.1-15.8-34.5c-3.9-11.8,10.2-24.2,18-30.6
			c0.6-0.5,1.1-0.8,1.8-1.4c2.6-2.2,10-7.5,12.7-9.3c4.5-2.9,8.9-5.9,13.4-8.6c0.6-0.4,1.5-0.7,1.7-1.4c-1.2-0.8-19.3,6.3-21.6,7.3
			C138.6,75.7,112.4,89.5,112.4,112.5L112.4,112.5z"/>
		<path class="st1" d="M158.7,245.8c-0.4-0.4-1.8-0.8-2.4-1.1c-0.9-0.4-1.6-0.7-2.4-1.1c-3.2-1.6-6-3.1-9-5c-2-1.2-2.5-1.6-5.3-0.9
			c-9.7,2.6-27.9,3.5-38.9,3.5c-4.6,0-9.4-0.2-13.9-0.3c-4.1,0-14.8-0.4-17.2-3.8c-1.9-2.6,0.4-3.5,0.6-5.3c-2.3,0.1-5,1.4-6.8,2.3
			c-8.8,4.6-7.2,11,1.1,14.8c8.5,3.9,20.2,5.6,30.8,6.2c19.7,1.1,31.1-0.2,49.3-4.9C147.5,249.5,156.8,246.9,158.7,245.8
			L158.7,245.8z"/>
		<path class="st1" d="M95.7,222.3c6.6,0,12.1,0.5,19.2,0.2c6-0.3,11.6-0.8,17.4-1.6c7.5-1.1,16.3-3,23.6-5.1c2.6-0.8,5-1.4,7.2-2.4
			c-0.5-0.4-3.5-1.2-5.7-2.6c-6.8-4.3-3.9-5.3-11.6-3.9c-2.4,0.4-5,0.8-7.4,1.1c-7,0.9-15.7,2-22.9,2.3c-2.5,0.1-5.4,0.5-8,0.5
			c-2.4,0-4.9,0.2-7.4,0.3c-2.7,0.1-5.2,0.1-7.9,0.2c-4.3,0.1-38.9,0.8-30.6-10.1c0.4-0.6,1.5-1.7,1.8-2.2
			c-4.5,0.4-11.4,3.5-13.8,7.4c-4,6.7,2.3,9.5,7.6,11.1C67.2,220.6,85.4,222.3,95.7,222.3L95.7,222.3z"/>
		<path class="st1" d="M174.6,175.3c-0.1,0-0.1-0.1-0.2,0h-1c-0.4,0.1-0.9,0.2-1.2,0.2c-22.8,4-59.3,7.3-80.9,7.3
			c-3.8,0-7.5,0-11.3-0.1c-3.7-0.1-7.3-0.3-10.9-0.4c-5.2-0.1-15.9-1.1-20.1-2.8c-7.8-3.1,5.3-8.5,8.1-9.6c2.8-1.1,5.5-1.9,8.4-2.9
			c1.5-0.5,8-2,8.8-2.6c0,0-0.1-0.1-0.1-0.1l-3.4-0.1c-12.7,1.1-33.9,6.6-43.5,13c-10.1,6.8,10.1,9.4,14.4,9.9
			c8.7,1.1,18.7,2.2,27.8,2.5c9.7,0.3,19.4,0.9,29.2,0.3c18.6-1.3,36.3-2.7,54.7-5.6c2.2-0.4,4.3-0.7,6.6-1c2.8-0.4,3.1-0.8,5.3-2.2
			l8.1-5C174.2,175.9,174.6,175.8,174.6,175.3L174.6,175.3z"/>
		<path class="st1" d="M115,294.4c-14,0-26-0.5-39.7-1.1c-5.5-0.2-11.2-0.7-16.6-1.2c-2.8-0.3-5.5-0.5-8.2-0.7
			c-0.6-0.1-7.3-0.9-7.9-0.5c2,2,25.3,6.1,29.6,6.6c17.6,2.3,33.8,2.8,51.7,2.4c16.5-0.4,33.6-2,49.8-4.5c9.6-1.5,20.9-3.8,29-7.4
			c4.3-1.9,8.1-3.7,11.8-6.3c2.2-1.5,8.1-6.5,8.1-10.2c-1.6,1.1-3,2.1-4.8,3.3c-4.4,3-11.4,6.3-16.5,8.1c-8.2,3-16.9,5-26,6.7
			C157.7,292.9,132.6,294.4,115,294.4L115,294.4z"/>
		<path class="st1" d="M183.4,165.6c1,0,3.8-0.6,6.6-0.6c5.9,0,12.7,1.2,16.4,5.6c7.5,8.9,3.3,20.6-3.8,28.4
			c-4.2,4.7-8,8.4-13.3,12.2c-2.7,1.9-6,4.3-8.8,6c-1,0.6-3.9,2.2-4.4,2.9c2.3,0.1,11.8-3.5,14.1-4.5c11.8-4.8,25.7-13.3,30.8-25.2
			c7.4-17.1-11.2-33.8-31.6-28.1C187.8,162.7,184.2,164.1,183.4,165.6L183.4,165.6z"/>
	</g>
</g>
</svg>
