<?xml version="1.0" encoding="utf-8"?>
<!-- Generator: Adobe Illustrator 24.0.2, SVG Export Plug-In . SVG Version: 6.00 Build 0)  -->
<svg version="1.1" id="Layer_1" xmlns:xodm="http://www.corel.com/coreldraw/odm/2003"
	 xmlns="http://www.w3.org/2000/svg" xmlns:xlink="http://www.w3.org/1999/xlink" x="0px" y="0px" viewBox="0 0 300 300"
	 style="enable-background:new 0 0 300 300;" xml:space="preserve">
<style type="text/css">
	.st0{fill-rule:evenodd;clip-rule:evenodd;fill:#9C9C9C;}
	.st1{fill-rule:evenodd;clip-rule:evenodd;fill:#FDFDFD;}
	.st2{fill-rule:evenodd;clip-rule:evenodd;fill:#E2E2E2;}
</style>
<g id="Layer_x0020_1">
	<g id="_2170812710224">
		<polygon class="st0" points="298.7,300 299,1.1 0.1,1.1 0,300 		"/>
		<path class="st1" d="M200.9,234.7l-22.6,12.7c3,8.7,13.2,17.9,21.1,21.9c11,5.6,21.7,7.6,35.9,6.6c25.2-1.7,43.8-17.9,40.2-45.8
			c-4.4-34.5-48.7-36.8-58.6-49c-7.9-9.8,1.7-25,17.7-19.3c6,2.1,7.9,6.2,11.1,10.7l21.7-13.7c-8.2-20.8-38.3-28-59.9-18.6
			c-19.9,8.8-28.9,36.3-13.6,57.5c12.9,17.9,46.1,21.6,52.3,33.2c5.1,9.6-2.1,20.6-18.7,20.2C212.2,251,207.5,242.7,200.9,234.7z"/>
		<path class="st1" d="M134.3,237.7c-0.1,16.1-19.2,16.3-26.4,8.5c-1.2-1.2-2.1-2.6-3.3-4.6c-0.5-0.8-0.8-1.4-1.5-2.4l-1.9-2.3
			c-4.7,2.8-19.5,10.8-22.4,13.8c10,18.7,24,26.5,46.6,25.2c21.7-1.2,37.4-17,36.8-36.1c-0.2-33.6,0.3-67.9,0.3-101.7h-27.4
			C135.1,150.4,136.3,233,134.3,237.7L134.3,237.7z"/>
		<path class="st2" d="M298.7,300c1.3-1.5,0.6,1.5,1.1-3c0.1-0.9,0-3.6,0-4.7c-0.8-70.6,0-145.6,0-216.7c0-11.3,0.7-68.9-0.3-75
			c-8.7-1.2-250.6,0-290.9-0.3c-1.4,0-3.4-0.1-4.7-0.1L0.1,1.1H299L298.7,300z"/>
	</g>
</g>
</svg>
