<?xml version="1.0" encoding="utf-8"?>
<!-- Generator: Adobe Illustrator 24.0.2, SVG Export Plug-In . SVG Version: 6.00 Build 0)  -->
<svg version="1.1" id="Layer_1" xmlns="http://www.w3.org/2000/svg" xmlns:xlink="http://www.w3.org/1999/xlink" x="0px" y="0px"
	 viewBox="0 0 622.1 366.7" style="enable-background:new 0 0 622.1 366.7;" xml:space="preserve">
<style type="text/css">
	.st0{fill-rule:evenodd;clip-rule:evenodd;fill:#868686;}
	.st1{fill-rule:evenodd;clip-rule:evenodd;fill:#A3A3A3;}
	.st2{fill-rule:evenodd;clip-rule:evenodd;fill:#848484;}
	.st3{fill-rule:evenodd;clip-rule:evenodd;fill:#AAAAAA;}
	.st4{fill-rule:evenodd;clip-rule:evenodd;fill:#A6A6A6;}
</style>
<title>technologies-icons-1</title>
<g id="Capa_1">
	<g id="_2312253122944">
		<path class="st0" d="M356.8,166.6c0-25.6-2-19.7,8.9-26.6c14.8-7.9,10.8-8.9,22.7-1c13.8,7.9,10.8,1,10.8,28.6
			c0,3-3.9,3.9-9.9,7.9c-12.8,7.9-9.9,6.9-22.7-1C363.7,173.5,356.8,170.6,356.8,166.6z M378.5,83.9c-3,0-5.9,2-8.9,3.9l-49.3,28.6
			c-3,1-6.9,3-6.9,6.9v68c0,3.9,3,4.9,5.9,6.9l40.4,23.7c22.7,12.8,16.8,10.8,35.5,0l41.4-23.7c4-2,5.9-3.9,5.9-7.9V25.7
			c0-6.9-8.9-9.9-17.7-14.8L409,2c-13.8-7.9-9.9,8.9-9.9,25.6l-1,64.1c0,3-1,2-3.9,1C390.3,90.7,381.5,83.9,378.5,83.9z"/>
		<path class="st1" d="M156.7,151.9c4.9,0,6.9,3,12.8,6.9l65.1,41.4l5.9,3.9l12.8,7.9c4-1,9.9-5.9,13.8-7.9
			c23.7-12.8,18.7-5.9,18.7-48.3v-21.7c0-18.7,0-13.8-19.7-25.6c-4.9-3-8.9-5.9-13.8-8.9c-4.9-2-25.6-14.8-28.6-15.8
			c-3.9-1-6.9,1-8.9,2l-35.5,20.7c-4.7,3-9.7,5.6-14.8,7.9C153.8,120.3,156.7,126.2,156.7,151.9z"/>
		<path class="st2" d="M0,123.2V211c0,9.9,18.7-3.9,26.6-7.9c4-3,6.9-3.9,10.8-6.9c4.9-2,6.9-3.9,6.9-11.8v-34.5
			c0-8.9,1-7.9,6.9-10.8c13.8-7.9,11.8-8.9,25.6-1c12.8,7.9,9.9,8.9,8.9,44.4c0,11.8-2,9.9,16.8,19.7c7.9,4.9,26.6,18.7,26.6,9.9
			v-88.7c0-4.9-2-5.9-5.9-7.9c-3-2-4.9-3-7.9-4.9c-6.9-3.9-46.3-27.6-50.3-27.6c-3.9-1-13.8,5.9-16.8,7.9L5.9,114.4
			C3,116.3,0,118.3,0,123.2z"/>
		<path class="st2" d="M471.1,124.2v67c0,3,6.9,6.9,10.8,8.9c4,3,8.9,4.9,12.8,7.9l26.6,14.8c17.7,10.8,12.8,6.9,34.5-4
			c3-1,3.9-2.9,6.9-3.9c21.7-11.8,12.8-9.9-17.7-28.6c-9.9-5.9-20.7-11.8-31.5-17.7v-24.6c4.9-1,18.7-10.8,21.7-10.8
			s15.8,9.9,20.7,10.8c0,29.6-2,25.6,25.6,9.9c3.9-2,6.9-3.9,10.8-5.9c8.9-5.9,7.9-4,7.9-22.7c0-7.9-6.9-9.9-13.8-13.8
			c-5.9-3-47.3-28.6-50.3-28.6c-4,0-44.4,24.6-51.3,28.6C476.1,116.3,471.1,117.3,471.1,124.2z"/>
		<path class="st3" d="M230.6,261.2v62.1c0,9.9,5.9,10.9,11.8,13.8c10.8,6.9,11.8,8.9,22.7,8.9c17.7,0,14.8-21.7,14.8-32.5v-47.3
			c-5.9-2-4.9-2-10.9,0v54.2c0,20.7-7.9,16.8-20.7,8.9c-2.9-2-7.9-3-7.9-6.9v-59.1c0-3.9,24.6-15.8,27.6-17.7
			c3.9-3,25.6-15.8,28.6-15.8c2,0,25.6,13.8,28.6,15.8l20.7,11.8c3,2,5.9,2,5.9,5.9v59.1c0,3.9-3,3.9-5.9,5.9c-3,1-3.9,2-6.9,3.9
			c-8.9,4.9-38.5,23.7-43.4,24.7c-21.7-14.8-12.8-5.9-24.6-4.9c1,3.9,20.7,14.8,23.7,14.8c8.9,0,11.8-3.9,20.7-8.9l32.5-18.7
			c5.9-3,13.8-5.9,13.8-13.8v-64.1c0-9.9-17.8-16.8-29.6-23.7c-40.4-24.6-33.5-21.7-53.2-10.8c-5.4,3.6-11,6.9-16.8,9.9
			C251.3,243.5,230.6,252.4,230.6,261.2z"/>
		<path class="st4" d="M253.3,211.9l-12.8-7.9l-5.9-3.9l-65.1-41.4c-5.9-3.9-7.9-6.9-12.8-6.9v23.6c0,20.7-2,16.8,19.7,28.6
			c6.9,3.9,41.4,26.6,46.3,25.6c2-1,12.8-6.9,15.8-8.9S251.3,214.9,253.3,211.9z"/>
		<path class="st3" d="M285.8,280c0,26.6,43.4,11.8,43.4,25.6c0,11.8-26.6,7.9-30.6,4.9c-2-1-3.9-4.9-3.9-8.9c-4.9,0-9.9-1-10.8,3
			c-1,7.9,8.9,18.7,23.6,18.7c12.8,0,33.5,1,33.5-18.7c0-24.6-43.4-10.9-43.4-24.6c0-6.9,12.8-5.9,16.8-5.9
			c10.9,0,10.9,3.9,14.8,10.8h8.9c2-11.8-7.9-20.7-20.7-20.7c-9.9,0-16.8-1-24.6,4C289.8,269.1,285.8,275,285.8,280z"/>
		<path class="st3" d="M522.4,150.9c0,13.8-1,11.8,5.9,15.8c7.9,4.9,4.9,5.9,13.8,0c6.9-3.9,5.9,0,5.9-15.8c0-2.9-9.8-6.9-11.8-8.9
			C533.2,142,522.4,146.9,522.4,150.9z"/>
	</g>
</g>
</svg>
