<?xml version="1.0" encoding="utf-8"?>
<!-- Generator: Adobe Illustrator 24.0.2, SVG Export Plug-In . SVG Version: 6.00 Build 0)  -->
<svg version="1.1" id="Layer_1" xmlns:xodm="http://www.corel.com/coreldraw/odm/2003"
	 xmlns="http://www.w3.org/2000/svg" xmlns:xlink="http://www.w3.org/1999/xlink" x="0px" y="0px" viewBox="0 0 291 300"
	 style="enable-background:new 0 0 291 300;" xml:space="preserve">
<style type="text/css">
	.st0{fill-rule:evenodd;clip-rule:evenodd;fill:#575757;}
	.st1{fill-rule:evenodd;clip-rule:evenodd;fill:#FEFEFE;}
	.st2{fill-rule:evenodd;clip-rule:evenodd;fill:#939393;}
</style>
<g id="Layer_x0020_1">
	<g id="_2171702412768">
		<path class="st0" d="M174.5,4.8c-3.5,0-6-0.9-9.2-1.1c-15-0.8-23.7-1.7-38.7,3.3c-15.1,5.1-7.2,6.4-17.1,3.5
			C83.1,2.8,51.3-1.1,27,15.1C16,22.4,8.8,33.1,4.7,45.6c-4,11.9-5.7,30.5-3.8,43c0.7,4.2,1.2,8,1.8,11.7
			c4.3,26.1,17.8,78.2,32.5,101.1c9.1,14.1,22,28.1,40.8,20.5c3.3-1.3,4.9-3,7.6-4.8c6.8,10.1,30,12.6,43,9.6c2.5-0.6,5.3-2,7.7-2.6
			c0,23.4,0.6,60.4,23.4,73c3,1.7,6.7,2.6,10.7,2.9h9.1c5.4-0.4,10.7-1.5,14.8-2.9c24.1-7.9,31.9-24.9,35.9-49.2l2.5-31.9
			c10,0,15.8,0.2,25.8-2.3c7.7-1.9,14.9-5.1,21.2-9.5c5-3.4,13.4-10.6,13.4-17.3v-1.3c0-4.5-0.3-8.7-4.7-12.2
			c-9.6-7.6-20.9-1-32.4-1c9.9-18.7,15.5-28,23.2-49.5c6.6-18.3,22.4-69.1,5.2-89.9c-4.8-5.8-10.6-12.2-17-16.4
			C244.9,3.1,230.6,0,205.8,0C191.6,0,175.1,4.8,174.5,4.8L174.5,4.8z"/>
		<path class="st1" d="M105.6,179.5c2.3,0.9,4.4,2,7.3,2.8c2.7,0.8,6.9,0.8,9,1.9c-6.5,10.2-9.4,9.9-20.4,12.5
			c-4.4,1-9,2.3-11.4,4.8c-8.5,8.7,8.2,19.1,28,17.3c4.8-0.4,9.1-1.6,13-3.3c5.1-2.2,6.5-4.1,9.8-6.3c0.6,16.3-0.8,44.8,3.6,59.4
			c5,16.1,17.7,27.3,38.9,22.9c18.6-3.8,29.2-11.6,33.4-29.6c3.8-16.1,5.8-38.8,7.6-56c6-0.6,11.3,3.3,30.5-1.2
			c9-2.1,17-7.2,22.3-11.7c8-6.8,8-17.5-7.7-14.6c-10.1,1.9-20.4,3.5-29.7-0.3c0.7-2,3.5-6.1,4.7-8c17.7-29.3,36.3-74.5,36.6-108.7
			c0.2-18.1-4.5-24.5-17.7-35.6C242.9,8.6,211.2,3.6,179.5,12c-5.3,1.4-4.5,2.3-9.9,1.1c-14.1-2.9-32.8-2.8-45.6,3.7
			c-11.5,5.9-5.5,4.5-19.2,0.7c-35.9-10-71.3-8.3-87.8,20c-15,25.8-6.8,61.3-0.1,89.5c6.3,26.6,16,57.7,29.9,76.2
			c8.2,11,21.8,17.5,33.8,4.5L105.6,179.5L105.6,179.5z"/>
		<path class="st2" d="M93.5,86.8c2.4-0.8,5-2.3,7.4-3.3c8.1-3.4,18.1-5.5,26.7-3.2c11.6,3.2,14.6,13.3,16.6,26.5
			c6.3,41.3-8.4,48.5-12.9,70.4c12-1.2,18.7,8.4,18.2,20c-0.7,16.3-1.3,59.1,4.7,73c4,9.4,11.9,15.5,25.6,13.4
			c27.8-4.3,28.9-18.6,32.3-45.9c1.4-11.3,3-22.9,4.2-34.5c1.4-13.7-1-19.6,11-25.6l1.8-1c-1-1.9-3.1-4.1-4.4-5.9
			c-6.4-9.1-22-40.8-24.8-48.5c-3.8-10.4-7-23.7-1-33.8c5.7-9.6,17.2-10.9,32-10.2c-1.7-7.2-8-17.1-11.3-22
			c-4.7-6.9-9.7-12.1-15.6-17.2c-11.2-9.7-26.5-17.8-46.6-19.2c-22-1.5-37.4,6.1-46.8,18C101.3,49.5,94.8,67.4,93.5,86.8L93.5,86.8z
			"/>
		<path class="st2" d="M98.2,174.5c-1.7-2.3-3.3-3.4-5.5-6c-1.7-2-3.2-4.6-4.6-7.3c-7.8-15.4-3.5-25.9-3-40.6
			C86.1,96.3,81.3,86.1,91,57c6.6-19.9,15.7-26.3,17.4-29.7C88.5,22,66.1,16.1,44.7,24.1c-19.1,7.2-26.6,25.4-27.6,46.4
			c-1.4,30.9,17,93.3,30.5,118.3c17.6,32.5,27.4,11.9,38.7-0.9c1.1-1.2,1.9-1.8,2.9-3L98.2,174.5L98.2,174.5z"/>
		<path class="st2" d="M188.4,18.8c3.1,2.7,17.4,7.4,30.5,23.1l6.1,7.4c5.3,7.2,11.2,17.3,14.1,26.3c2.6,8.1,1.3,15.9,0.1,24.4
			c-4,28.2,5.4,41.4-2.1,60.8c-2.8,7.1-4.1,5.7-2.7,9c1.6-0.9,0.3,0.2,1.4-1.2l5.6-9.4c14.5-25.6,28.3-60.4,31.1-90
			c0.5-5.4,0.7-11.4-0.1-16.8c-1.7-12.3-14.7-21.7-24.7-27.4c-7-4-17.2-7-26.4-8.1C213.5,16.1,194.5,15.8,188.4,18.8L188.4,18.8z"/>
		<path class="st2" d="M115.7,88c-4.2,0.6-22.3,5.5-22.5,11c-0.5,10.6,1.4,15.6-0.3,32c-1.1,10.9-1.7,19.6,3.7,28.2
			c4.1,6.7,9.4,12.2,18.4,14.9c8,2.5,7.6,2,9.6-4.4c8.8-27.1,17.5-29.8,10-68.1C132.6,91.2,128,86.4,115.7,88z"/>
		<path class="st2" d="M227.9,160.1c8.3-11-0.4-34.8,1.9-54.1c0.7-6,2.3-12.7,2.1-18.7c-4.7-2.1-19.6-1.8-25,4.3
			c-9,10,4.4,37.6,9.9,47.7c1.9,3.5,3.7,6.8,5.5,10.1C223.3,151.5,227,159,227.9,160.1L227.9,160.1z"/>
		<path class="st2" d="M97.7,206.8c5.7,4.8,21.2,4.4,28.4,1.7c6-2.3,18-10.4,14-18.4c-2-4-6.6-6.3-10-2.3c-2.8,3.2-4.8,6.1-7.9,9.4
			C115.2,204.7,101.7,203.4,97.7,206.8z"/>
		<path class="st2" d="M225.4,196.9c9.8,5.1,36,0.1,45.1-9.4l0.6-0.7c-10.4,1.1-18.8,3.7-29.6,1c-6-1.5-5.5-4.5-11.2-2.3
			C226.1,187.1,224.6,191.6,225.4,196.9z"/>
		<path class="st1" d="M114.8,94.2c0.3,9,10.9,10.2,14.6,5.5c2.7-3.4-0.7-5.6-3.8-6.6C120.3,91.6,118.7,92.6,114.8,94.2z"/>
		<path class="st1" d="M210.1,93.5c0.3,7,10.2,6.9,13.3,1.6C227.3,88.2,214.5,89.9,210.1,93.5z"/>
	</g>
</g>
</svg>
