<?xml version="1.0" encoding="utf-8"?>
<!-- Generator: Adobe Illustrator 24.0.2, SVG Export Plug-In . SVG Version: 6.00 Build 0)  -->
<svg version="1.1" id="Layer_1" xmlns:xodm="http://www.corel.com/coreldraw/odm/2003"
	 xmlns="http://www.w3.org/2000/svg" xmlns:xlink="http://www.w3.org/1999/xlink" x="0px" y="0px" viewBox="0 0 300 300"
	 style="enable-background:new 0 0 300 300;" xml:space="preserve">
<style type="text/css">
	.st0{fill-rule:evenodd;clip-rule:evenodd;fill:#6E6E6E;}
	.st1{fill-rule:evenodd;clip-rule:evenodd;fill:#FDFDFD;}
	.st2{fill-rule:evenodd;clip-rule:evenodd;fill:#C6C6C6;}
</style>
<g id="Layer_x0020_1">
	<g id="_2171656246544">
		<polygon class="st0" points="0,300 298.5,300 300,300 300,0 298.5,0 3.1,0 0,0 		"/>
		<path class="st1" d="M202.1,234.1l-21.3,12c-1.1,0.9-0.6,0.4-1.4,1.3c1.8,4.9,5.8,9.3,9.1,12.6c11.8,12.1,29.5,16.8,47.6,15.3
			c24.9-2.1,43.7-18,39.6-45.9c-4.9-33.8-48.1-35.7-58.1-48.8c-7.1-9.3,1.2-23.7,17.1-18.7c7.3,2.3,7.4,6.2,12,10.4
			c3.8-1.3,18.1-11.3,20.9-13.7c-1.8-4.8-6-8.4-9.1-11.8c-11.1-11.8-36-12.3-49.6-6.3c-9.2,4.1-16.6,11.7-19.9,22.6
			c-3.7,12.5,0,26.2,5.8,34.2c13.2,18.2,44.6,21.7,51.7,33.1c5.1,8.1-0.1,21.1-18.7,20.4C214.3,250.3,207.1,242.3,202.1,234.1z"/>
		<path class="st1" d="M104,162.8c1,1,1.2-1.6,1.2,5.2v105.4H132l0-104.6c0-0.6-0.1-2.7,0-3.2c0.5-4.6,0-1.7,1.3-2.9h38.2l-0.2-24.4
			l-105-0.2l-0.4,24.5L104,162.8z"/>
		<path class="st2" d="M133.2,162.8c-1.2,1.2-0.8-1.8-1.3,2.9c0,0.5,0,2.6,0,3.2l0,104.6h-26.8V168c0.1-6.8-0.1-4.3-1.2-5.2
			c1.8,8-1,98.3,0.7,111.1l27.8,0.2C134.2,260.1,131.4,171.1,133.2,162.8L133.2,162.8z"/>
	</g>
</g>
</svg>
